<svg width="228" height="32" viewBox="0 0 228 32" fill="none" xmlns="http://www.w3.org/2000/svg">
<g clip-path="url(#clip0)">
<path d="M29.3171 0.214478L15.5108 31.9966H13.8063L0 0.214478H5.64524L14.6585 21.9551L23.6735 0.214478H29.3171Z" fill="#5AB342"/>
<path d="M36.9569 0.971836C37.2766 1.27209 37.5302 1.63552 37.7016 2.03901C37.873 2.44249 37.9583 2.87719 37.9523 3.31542C37.9597 3.75058 37.8748 4.18238 37.7033 4.58248C37.5317 4.98257 37.2773 5.3419 36.9569 5.63687C36.6435 5.94331 36.2726 6.18483 35.8654 6.34752C35.4582 6.51022 35.0228 6.59088 34.5842 6.58486C34.1383 6.59416 33.695 6.51518 33.2799 6.35247C32.8648 6.18976 32.486 5.94654 32.1656 5.63687C31.8445 5.34226 31.5896 4.98304 31.4177 4.58289C31.2459 4.18274 31.1609 3.75075 31.1684 3.31542C31.1623 2.87702 31.2477 2.44215 31.4194 2.03861C31.5911 1.63508 31.8452 1.27174 32.1656 0.971836C32.4824 0.655601 32.86 0.406519 33.2756 0.239527C33.6912 0.0725348 34.1363 -0.00892771 34.5842 2.4514e-05C35.0248 -0.0055487 35.462 0.0776389 35.8697 0.244615C36.2773 0.41159 36.6471 0.658926 36.9569 0.971836ZM37.0506 31.486H32.0701V8.22043H37.0506V31.486Z" fill="#5AB342"/>
<path d="M61.9337 11.2056C64.3518 13.5418 65.5614 16.4153 65.5625 19.826C65.5637 23.2367 64.354 26.1186 61.9337 28.4719C59.5133 30.8217 56.5952 31.9966 53.1795 31.9966C49.733 31.966 46.8234 30.782 44.4508 28.4446C42.0782 26.1073 40.8924 23.2333 40.8936 19.8226C40.8936 16.4119 42.0793 13.5384 44.4508 11.2022C46.8223 8.86602 49.7319 7.69848 53.1795 7.69962C56.5952 7.69962 59.5133 8.86829 61.9337 11.2056ZM48.0336 14.4495C46.6564 15.886 45.9684 17.694 45.9695 19.8736C45.9695 22.0215 46.6513 23.8136 48.0149 25.2501C49.3785 26.6865 51.1 27.4036 53.1795 27.4013C55.2373 27.4013 56.9611 26.6831 58.3509 25.2467C59.7406 23.8102 60.4366 22.0181 60.4388 19.8702C60.4388 17.6917 59.7508 15.8837 58.3747 14.4461C56.9986 13.0086 55.2828 12.2779 53.2272 12.254C51.1409 12.2824 49.4097 13.0142 48.0336 14.4495Z" fill="#5AB342"/>
<path d="M89.3779 31.486L80.4601 19.4022H74.7194V31.486H69.6895V0.214478H81.1231C84.2866 0.214478 86.8485 1.09892 88.8086 2.86781C90.7688 4.6367 91.7494 6.94227 91.7506 9.78452C91.7506 11.8371 91.2205 13.6372 90.1603 15.1848C89.1001 16.7324 87.6229 17.8671 85.7286 18.5887L95.1186 31.486H89.3779ZM74.7194 14.9533H81.026C82.7645 14.9533 84.1241 14.4796 85.1048 13.5322C86.0854 12.5848 86.5797 11.3509 86.5877 9.83048C86.5877 8.28397 86.0974 7.03588 85.1167 6.08619C84.1361 5.13651 82.7765 4.6628 81.0379 4.66507H74.7313L74.7194 14.9533Z" fill="white"/>
<path d="M117.653 21.4837H100.29C100.605 23.4125 101.443 24.9125 102.804 25.9836C104.165 27.0547 105.857 27.5919 107.88 27.5954C110.316 27.5954 112.577 26.6791 114.664 24.8467L117.036 28.2506C114.378 30.7468 111.279 31.9949 107.738 31.9949C104.132 31.9949 101.143 30.8347 98.7711 28.5144C96.3996 26.1941 95.2139 23.3121 95.2139 19.8685C95.2139 16.4578 96.3758 13.5764 98.6995 11.2243C101.023 8.87223 103.878 7.69732 107.263 7.69959C110.364 7.69959 112.934 8.70998 114.972 10.7308C117.011 12.7515 118.033 15.2937 118.04 18.3572C118.029 19.4105 117.899 20.4592 117.653 21.4837ZM102.78 13.4556C101.563 14.4767 100.764 15.8582 100.384 17.5998H113.051C113.022 15.8638 112.439 14.4824 111.302 13.4556C110.166 12.4287 108.759 11.9181 107.08 11.9238C105.508 11.8936 103.978 12.4384 102.78 13.4556Z" fill="white"/>
<path d="M137.341 11.2992L134.637 14.3781C133.119 12.7998 131.301 12.0106 129.183 12.0106C127.065 12.0106 126.005 12.7527 126.002 14.2368C125.996 14.5208 126.055 14.8024 126.173 15.0608C126.291 15.3193 126.466 15.5478 126.684 15.7294C127.139 16.1231 127.937 16.5412 129.079 16.9837L131.31 17.8841C133.523 18.7997 135.136 19.7868 136.149 20.8455C137.163 21.9041 137.669 23.2537 137.666 24.8944C137.666 27.1375 136.844 28.8826 135.2 30.1296C133.556 31.3765 131.5 32.0006 129.033 32.0017C125.079 32.0017 121.948 30.5017 119.64 27.5018L122.486 24.3753C124.605 26.5855 126.788 27.6907 129.033 27.6907C130.107 27.6907 131 27.47 131.712 27.0286C132.051 26.8323 132.329 26.5475 132.517 26.205C132.705 25.8625 132.796 25.4753 132.779 25.085C132.794 24.7725 132.731 24.4612 132.594 24.1796C132.457 23.8981 132.252 23.6552 131.997 23.4733C131.476 23.0954 130.645 22.6694 129.507 22.1951L127.134 21.1995C125.079 20.3462 123.553 19.4147 122.556 18.4049C121.559 17.395 121.064 16.0687 121.07 14.4257C121.07 12.3425 121.845 10.7007 123.395 9.50027C124.945 8.29983 126.905 7.69962 129.277 7.69962C132.635 7.69962 135.323 8.89949 137.341 11.2992Z" fill="white"/>
<path d="M161.585 21.7202C161.585 24.8155 160.628 27.3026 158.715 29.1815C156.801 31.0605 154.389 31.9988 151.477 31.9966C148.538 31.9966 146.103 31.0571 144.172 29.1781C142.241 27.2992 141.276 24.8121 141.274 21.7168V8.22037H146.209V22.0997C146.209 23.7098 146.707 24.9965 147.704 25.9598C148.7 26.9231 149.958 27.4036 151.477 27.4013C152.933 27.4013 154.151 26.9197 155.132 25.9564C156.113 24.9931 156.602 23.7064 156.601 22.0963V8.22037H161.585V21.7202Z" fill="white"/>
<path d="M199.322 10.2338C200.856 11.9244 201.623 14.1585 201.623 16.9361V31.486H196.595V17.6475C196.595 16.0057 196.16 14.6952 195.289 13.716C194.419 12.7368 193.241 12.2495 191.754 12.254C190.235 12.254 189.002 12.7436 188.054 13.7228C187.106 14.702 186.635 15.9314 186.641 17.4109V31.486H181.659V17.6475C181.659 16.0363 181.216 14.7315 180.331 13.733C179.446 12.7345 178.256 12.2415 176.763 12.254C175.246 12.254 174.013 12.7516 173.063 13.7466C172.113 14.7417 171.639 16.0465 171.64 17.6611V31.486H166.659V8.22041H171.309V10.4466C172.985 8.61526 175.23 7.69962 178.045 7.69962C181.272 7.69962 183.628 8.91537 185.114 11.3469C187.011 8.91537 189.636 7.69962 192.988 7.69962C195.678 7.69962 197.789 8.54435 199.322 10.2338Z" fill="white"/>
<path d="M227.622 21.4837H210.259C210.574 23.4125 211.413 24.9125 212.773 25.9836C214.133 27.0547 215.825 27.5919 217.849 27.5954C220.285 27.5954 222.546 26.6791 224.632 24.8467L227.005 28.2506C224.348 30.7468 221.249 31.9949 217.707 31.9949C214.1 31.9949 211.111 30.8347 208.74 28.5144C206.368 26.1941 205.183 23.3121 205.183 19.8685C205.183 16.4578 206.344 13.5764 208.668 11.2243C210.992 8.87224 213.847 7.69562 217.232 7.69449C220.333 7.69449 222.902 8.70488 224.941 10.7257C226.98 12.7464 228.002 15.2886 228.009 18.3521C227.998 19.4071 227.868 20.4576 227.622 21.4837ZM212.749 13.4556C211.532 14.4767 210.733 15.8582 210.352 17.5998H223.02C222.987 15.8638 222.402 14.4824 221.264 13.4556C220.127 12.4287 218.72 11.9182 217.042 11.9238C215.472 11.8953 213.945 12.4399 212.749 13.4556Z" fill="white"/>
<path d="M56.4797 19.5724C56.5391 19.6072 56.5883 19.657 56.6225 19.7167C56.6568 19.7764 56.6748 19.844 56.6748 19.9128C56.6748 19.9815 56.6568 20.0491 56.6225 20.1088C56.5883 20.1685 56.5391 20.2183 56.4797 20.2532L53.998 21.6828L51.5163 23.1141C51.4564 23.1488 51.3884 23.1672 51.3192 23.1673C51.2499 23.1674 51.1819 23.1493 51.1219 23.1148C51.0619 23.0802 51.0121 23.0305 50.9775 22.9707C50.9429 22.9108 50.9247 22.8429 50.9248 22.7737V17.045C50.9247 16.9759 50.9429 16.9079 50.9775 16.8481C51.0121 16.7882 51.0619 16.7385 51.1219 16.704C51.1819 16.6694 51.2499 16.6513 51.3192 16.6514C51.3884 16.6515 51.4564 16.6699 51.5163 16.7046L53.998 18.1359L56.4797 19.5724Z" fill="#5AB342"/>
</g>
<defs>
<clipPath id="clip0">
<rect width="228" height="32" fill="white"/>
</clipPath>
</defs>
</svg>
