<?xml version="1.0" encoding="utf-8"?>
<!-- Generator: Adobe Illustrator 16.0.3, SVG Export Plug-In . SVG Version: 6.00 Build 0)  -->
<!DOCTYPE svg PUBLIC "-//W3C//DTD SVG 1.1//EN" "http://www.w3.org/Graphics/SVG/1.1/DTD/svg11.dtd">
<svg version="1.1" id="Layer_1" xmlns="http://www.w3.org/2000/svg" xmlns:xlink="http://www.w3.org/1999/xlink" x="0px" y="0px"
	 width="80.833px" height="79px" viewBox="0 0 80.833 79" enable-background="new 0 0 80.833 79" xml:space="preserve">
<path fill="#FFFFFF" d="M52.965,35.729c-0.442-0.499-0.94-0.831-1.495-1.053c-0.554-0.221-1.218-0.332-1.884-0.332
	c-0.664,0-1.33,0.111-1.883,0.332c-0.554,0.222-1.053,0.609-1.496,1.053c-0.442,0.499-0.72,1.107-0.996,1.828
	c-0.221,0.72-0.332,1.551-0.332,2.548c0,0.94,0.111,1.828,0.332,2.547c0.222,0.721,0.554,1.33,0.996,1.828
	c0.443,0.498,0.941,0.832,1.496,1.053c0.555,0.222,1.219,0.389,1.883,0.389c0.666,0,1.33-0.111,1.884-0.389
	c0.554-0.221,1.053-0.609,1.495-1.053c0.443-0.498,0.721-1.053,0.998-1.828c0.223-0.719,0.332-1.605,0.332-2.547
	s-0.11-1.829-0.332-2.548C53.741,36.837,53.409,36.228,52.965,35.729z"/>
<path fill="#FFFFFF" d="M72.077,28.031L21.949,1.5c-3.988-2.104-8.641-1.994-12.462,0.333C5.61,4.158,3.339,8.202,3.339,12.688
	v4.154v3.822v36.335v8.808c0,4.485,2.271,8.529,6.148,10.855c2.049,1.219,4.265,1.828,6.536,1.828c2.049,0,4.043-0.499,5.926-1.496
	l50.127-26.531c4.209-2.215,6.756-6.425,6.756-11.188C78.833,34.511,76.286,30.302,72.077,28.031z M27.544,48.025H24.94
	l-6.204-15.841h3.102l2.936,7.865c0.443,1.163,0.72,1.885,0.831,2.271c0.111,0.332,0.333,0.998,0.665,1.828
	c0.277-0.887,0.499-1.496,0.609-1.828c0.111-0.387,0.388-1.107,0.831-2.271l2.936-7.865h3.046L27.544,48.025z M38.732,48.025h-2.88
	v-15.84h2.88V48.025z M56.788,43.428c-0.332,0.997-0.83,1.885-1.496,2.604c-0.664,0.72-1.494,1.274-2.437,1.717
	c-0.94,0.388-2.049,0.608-3.269,0.608c-1.219,0-2.326-0.222-3.268-0.608c-0.941-0.388-1.771-0.94-2.438-1.717
	c-0.664-0.72-1.164-1.606-1.495-2.604c-0.333-0.996-0.499-2.104-0.499-3.322c0-1.218,0.166-2.327,0.499-3.323
	c0.331-0.997,0.831-1.883,1.495-2.604c0.666-0.72,1.496-1.272,2.438-1.717c0.941-0.388,2.049-0.609,3.268-0.609
	s2.326,0.222,3.269,0.609c0.942,0.388,1.772,0.941,2.437,1.717c0.666,0.72,1.164,1.606,1.496,2.604c0.334,0.997,0.5,2.105,0.5,3.323
	C57.288,41.324,57.122,42.432,56.788,43.428z"/>
</svg>
