<?xml version="1.0" encoding="utf-8"?>
<!-- Generator: Adobe Illustrator 16.0.3, SVG Export Plug-In . SVG Version: 6.00 Build 0)  -->
<!DOCTYPE svg PUBLIC "-//W3C//DTD SVG 1.1//EN" "http://www.w3.org/Graphics/SVG/1.1/DTD/svg11.dtd">
<svg version="1.1" id="Layer_1" xmlns="http://www.w3.org/2000/svg" xmlns:xlink="http://www.w3.org/1999/xlink" x="0px" y="0px"
	 width="77.5px" height="79px" viewBox="0 0 77.5 79" enable-background="new 0 0 77.5 79" xml:space="preserve">
<path fill="#1481B3" d="M68.737,28.031L18.61,1.5C14.623-0.605,9.97-0.494,6.148,1.832C2.271,4.158,0,8.202,0,12.688v4.154v3.822
	v36.335v8.807c0,4.486,2.271,8.53,6.148,10.856c2.049,1.219,4.265,1.828,6.536,1.828c2.049,0,4.043-0.499,5.926-1.496l50.127-26.531
	c4.209-2.215,6.757-6.425,6.757-11.188C75.495,34.511,72.947,30.302,68.737,28.031z"/>
<path fill="#FFFFFF" d="M22.931,44.148c0.277-0.886,0.499-1.495,0.609-1.828c0.111-0.387,0.388-1.107,0.831-2.271l2.936-7.865h3.046
	l-6.148,15.841h-2.603l-6.204-15.841H18.5l2.936,7.865c0.443,1.163,0.72,1.884,0.831,2.271
	C22.377,42.653,22.599,43.318,22.931,44.148z"/>
<path fill="#FFFFFF" d="M32.513,48.025V32.185h2.88v15.841H32.513z"/>
<path fill="#FFFFFF" d="M53.948,40.105c0,1.219-0.166,2.326-0.499,3.323c-0.332,0.997-0.831,1.884-1.496,2.604
	c-0.665,0.72-1.495,1.274-2.437,1.717c-0.941,0.388-2.049,0.609-3.268,0.609c-1.219,0-2.327-0.222-3.268-0.609
	s-1.772-0.941-2.437-1.717c-0.665-0.72-1.164-1.606-1.496-2.604c-0.333-0.997-0.499-2.104-0.499-3.323
	c0-1.218,0.166-2.326,0.499-3.323c0.332-0.997,0.831-1.883,1.496-2.604c0.665-0.72,1.496-1.273,2.437-1.717
	c0.941-0.388,2.049-0.609,3.268-0.609c1.218,0,2.326,0.222,3.268,0.609c0.942,0.388,1.772,0.941,2.437,1.717
	c0.665,0.72,1.164,1.606,1.496,2.604C53.782,37.779,53.948,38.887,53.948,40.105z M50.958,40.105c0-0.941-0.111-1.828-0.333-2.548
	s-0.554-1.329-0.997-1.828c-0.443-0.499-0.941-0.831-1.496-1.053c-0.554-0.221-1.218-0.332-1.883-0.332
	c-0.665,0-1.33,0.111-1.883,0.332c-0.554,0.222-1.053,0.609-1.496,1.053c-0.443,0.499-0.72,1.107-0.997,1.828
	c-0.221,0.72-0.332,1.551-0.332,2.548c0,0.941,0.111,1.828,0.332,2.548c0.222,0.72,0.554,1.329,0.997,1.828
	c0.443,0.498,0.941,0.831,1.496,1.052c0.554,0.222,1.218,0.389,1.883,0.389c0.665,0,1.329-0.111,1.883-0.389
	c0.554-0.221,1.053-0.609,1.496-1.052c0.443-0.499,0.72-1.053,0.997-1.828C50.847,41.934,50.958,41.047,50.958,40.105z"/>
</svg>
