<?xml version="1.0" encoding="utf-8"?>
<!-- Generator: Adobe Illustrator 16.0.3, SVG Export Plug-In . SVG Version: 6.00 Build 0)  -->
<!DOCTYPE svg PUBLIC "-//W3C//DTD SVG 1.1//EN" "http://www.w3.org/Graphics/SVG/1.1/DTD/svg11.dtd">
<svg version="1.1" id="Layer_1" xmlns="http://www.w3.org/2000/svg" xmlns:xlink="http://www.w3.org/1999/xlink" x="0px" y="0px"
	 width="186.5px" height="79px" viewBox="79.5 0 186.5 79" enable-background="new 79.5 0 186.5 79" xml:space="preserve">
<path fill="#FFFFFF" d="M106.457,32.905c0,2.216-0.61,4.099-1.828,5.65c-1.219,1.551-3.102,2.714-5.705,3.434V42.1l9.471,13.071
	h-6.979l-8.64-12.352h-3.988v12.352h-5.816V23.323h9.693c1.606,0,3.102,0.111,4.486,0.277s2.548,0.443,3.544,0.831
	c1.883,0.72,3.324,1.772,4.321,3.157C105.958,29.028,106.457,30.8,106.457,32.905z M91.612,38.001c1.33,0,2.438-0.056,3.379-0.167
	s1.717-0.277,2.326-0.554c1.163-0.443,1.994-1.053,2.437-1.828c0.444-0.775,0.665-1.662,0.665-2.659
	c0-0.831-0.166-1.606-0.554-2.271c-0.332-0.665-0.941-1.164-1.828-1.551c-0.554-0.277-1.274-0.443-2.105-0.554
	c-0.831-0.111-1.883-0.166-3.102-0.166h-4.154v9.749H91.612z"/>
<path fill="#FFFFFF" d="M119.362,50.297h15.675v4.874h-21.491V23.323h20.604v4.874h-14.789v8.253h12.684v4.875h-12.684V50.297z"/>
<path fill="#FFFFFF" d="M156.859,46.032c0-0.831-0.221-1.44-0.608-1.938c-0.388-0.499-0.942-0.887-1.606-1.219
	s-1.439-0.555-2.271-0.775c-0.831-0.222-1.717-0.388-2.659-0.609c-1.218-0.277-2.438-0.609-3.545-0.941
	c-1.107-0.389-2.105-0.887-2.99-1.551c-0.832-0.665-1.552-1.496-2.05-2.492c-0.499-0.997-0.776-2.271-0.776-3.822
	c0-1.662,0.277-3.157,0.888-4.376c0.608-1.219,1.384-2.271,2.381-3.102c0.997-0.831,2.216-1.44,3.545-1.828
	c1.33-0.388,2.88-0.609,4.597-0.609c1.719,0,3.379,0.167,5.096,0.499c1.718,0.333,3.214,0.776,4.432,1.274v4.985
	c-1.661-0.665-3.212-1.108-4.764-1.44c-1.495-0.277-2.936-0.443-4.264-0.443c-1.939,0-3.38,0.332-4.432,1.052
	c-1.053,0.72-1.551,1.772-1.551,3.157c0,0.831,0.166,1.496,0.498,1.994c0.332,0.498,0.83,0.941,1.385,1.274
	c0.609,0.332,1.273,0.609,2.05,0.831c0.774,0.222,1.55,0.388,2.437,0.554c1.33,0.277,2.658,0.609,3.877,0.997
	s2.326,0.887,3.269,1.551c0.94,0.665,1.718,1.551,2.271,2.604c0.555,1.053,0.832,2.438,0.832,4.099c0,1.718-0.334,3.213-0.942,4.431
	c-0.608,1.274-1.552,2.271-2.714,3.103c-1.163,0.831-2.604,1.44-4.266,1.827c-1.662,0.389-3.488,0.609-5.482,0.609
	c-1.719,0-3.436-0.166-5.096-0.498c-1.662-0.332-3.047-0.831-4.154-1.44v-4.929c1.551,0.664,3.102,1.162,4.597,1.495
	c1.495,0.332,3.046,0.442,4.597,0.442c0.942,0,1.828-0.055,2.715-0.221c0.886-0.166,1.662-0.389,2.382-0.775
	c0.72-0.389,1.274-0.887,1.717-1.496C156.639,47.749,156.859,46.974,156.859,46.032z"/>
<path fill="#FFFFFF" d="M182.505,55.78c-1.662,0-3.157-0.166-4.485-0.499c-1.33-0.332-2.494-0.775-3.545-1.384
	c-0.998-0.609-1.884-1.329-2.604-2.216c-0.721-0.887-1.273-1.883-1.719-2.991c-0.332-0.886-0.608-1.883-0.774-2.936
	c-0.166-1.052-0.222-2.271-0.222-3.601V23.378h5.816v18.224c0,2.271,0.276,3.987,0.83,5.262c0.609,1.385,1.496,2.437,2.659,3.046
	s2.548,0.941,4.099,0.941s2.936-0.332,4.099-0.941s2.05-1.661,2.659-3.046c0.554-1.274,0.83-3.047,0.83-5.262V23.378h5.816v18.776
	c0,1.33-0.056,2.549-0.222,3.601c-0.166,1.053-0.388,2.05-0.775,2.936c-0.444,1.108-0.997,2.104-1.717,2.991
	c-0.722,0.887-1.606,1.606-2.659,2.216c-1.053,0.608-2.216,1.052-3.6,1.384C185.662,55.614,184.167,55.78,182.505,55.78z"/>
<path fill="#FFFFFF" d="M219.837,46.641c0.72-2.492,1.552-5.206,2.603-8.086l5.484-15.232h8.197v31.848h-5.816V39.053
	c0-2.381,0.111-5.096,0.277-8.252h-0.221c-0.277,0.886-0.61,1.938-0.942,3.046c-0.388,1.107-0.72,2.215-1.163,3.323l-6.591,18.001
	h-3.767l-6.592-18.001c-0.388-1.108-0.774-2.216-1.162-3.323c-0.389-1.108-0.666-2.16-0.942-3.046h-0.222
	c0.166,2.936,0.277,5.649,0.277,8.197v16.173h-5.816V23.323h8.143l5.482,15.176c0.942,2.548,1.773,5.263,2.604,8.142H219.837z"/>
<path fill="#FFFFFF" d="M249.525,50.297H265.2v4.874h-21.491V23.323h20.605v4.874h-14.789v8.253h12.684v4.875h-12.684V50.297z"/>
</svg>
