<svg width="50" height="51" viewBox="0 0 50 51" fill="none" xmlns="http://www.w3.org/2000/svg">
<path d="M45.3578 18.2134L12.7872 0.974418C10.196 -0.393188 7.17284 -0.321206 4.68955 1.19036C2.17028 2.70192 0.694702 5.32916 0.694702 8.24432V10.9435V13.4268V37.036V42.7584C0.694702 45.6735 2.17028 48.3008 4.68955 49.8123C6.02117 50.6041 7.46076 51 8.93633 51C10.2679 51 11.5636 50.6761 12.7872 50.0283L45.3578 32.7892C48.093 31.3497 49.7486 28.6145 49.7486 25.5193C49.7486 22.4242 48.093 19.689 45.3578 18.2134Z" fill="white"/>
<path d="M15.5944 28.6864C15.7744 28.1105 15.9183 27.7146 15.9903 27.4987C16.0623 27.2468 16.2422 26.7789 16.5301 26.0231L18.4376 20.9126H20.417L16.4222 31.2056H14.7307L10.6998 20.9126H12.7153L14.6227 26.0231C14.9106 26.7789 15.0906 27.2468 15.1625 27.4987C15.2345 27.7146 15.3785 28.1465 15.5944 28.6864Z" fill="#1481B3"/>
<path d="M21.8208 31.2056V20.9126H23.6923V31.2056H21.8208Z" fill="#1481B3"/>
<path d="M35.7486 26.0592C35.7486 26.851 35.6407 27.5708 35.4247 28.2186C35.2088 28.8664 34.8849 29.4423 34.453 29.9101C34.0211 30.378 33.4813 30.7379 32.8695 31.0258C32.2576 31.2777 31.5379 31.4217 30.7461 31.4217C29.9543 31.4217 29.2345 31.2777 28.6227 31.0258C28.0109 30.7739 27.471 30.414 27.0392 29.9101C26.6073 29.4423 26.2834 28.8664 26.0674 28.2186C25.8515 27.5708 25.7435 26.851 25.7435 26.0592C25.7435 25.2675 25.8515 24.5477 26.0674 23.8999C26.2834 23.252 26.6073 22.6762 27.0392 22.2083C27.471 21.7405 28.0109 21.3806 28.6227 21.0927C29.2345 20.8407 29.9543 20.6968 30.7461 20.6968C31.5379 20.6968 32.2576 20.8407 32.8695 21.0927C33.4813 21.3446 34.0211 21.7045 34.453 22.2083C34.8849 22.6762 35.2088 23.252 35.4247 23.8999C35.6407 24.5477 35.7486 25.2675 35.7486 26.0592ZM33.8052 26.0592C33.8052 25.4474 33.7332 24.8716 33.5893 24.4037C33.4453 23.9359 33.2294 23.54 32.9415 23.2161C32.6535 22.8921 32.3296 22.6762 31.9697 22.5323C31.6098 22.3883 31.178 22.3163 30.7461 22.3163C30.3142 22.3163 29.8823 22.3883 29.5224 22.5323C29.1625 22.6762 28.8386 22.9281 28.5507 23.2161C28.2628 23.54 28.0829 23.9359 27.9029 24.4037C27.7589 24.8716 27.687 25.4114 27.687 26.0592C27.687 26.6711 27.7589 27.2469 27.9029 27.7148C28.0469 28.1826 28.2628 28.5785 28.5507 28.9024C28.8386 29.2263 29.1625 29.4423 29.5224 29.5862C29.8823 29.7302 30.3142 29.8382 30.7461 29.8382C31.178 29.8382 31.6098 29.7662 31.9697 29.5862C32.3296 29.4423 32.6535 29.1903 32.9415 28.9024C33.2294 28.5785 33.4093 28.2186 33.5893 27.7148C33.7332 27.2469 33.8052 26.6711 33.8052 26.0592Z" fill="#1481B3"/>
</svg>
