<svg width="266" height="79" viewBox="0 0 266 79" fill="none" xmlns="http://www.w3.org/2000/svg">
<path d="M68.7372 28.0307L18.6105 1.49964C14.6226 -0.605121 9.96994 -0.494341 6.14813 1.83198C2.27093 4.1583 0 8.20165 0 12.6881V16.8423V20.6641V56.999V65.8057C0 70.2922 2.27093 74.3356 6.14813 76.6619C8.19751 77.8804 10.413 78.4897 12.684 78.4897C14.7334 78.4897 16.7273 77.9912 18.6105 76.9942L68.7372 50.4631C72.9467 48.2476 75.4946 44.038 75.4946 39.2746C75.4946 34.5112 72.9467 30.3017 68.7372 28.0307Z" fill="#1481B3"/>
<path d="M22.9308 44.1488C23.2077 43.2626 23.4293 42.6533 23.5401 42.321C23.6508 41.9332 23.9278 41.2132 24.3709 40.05L27.3065 32.1848H30.3529L24.2047 48.026H21.6015L15.3979 32.1848H18.4997L21.4353 40.05C21.8784 41.2132 22.1554 41.9332 22.2661 42.321C22.3769 42.6533 22.5985 43.3179 22.9308 44.1488Z" fill="white"/>
<path d="M32.5132 48.026V32.1848H35.3934V48.026H32.5132Z" fill="white"/>
<path d="M53.9483 40.1055C53.9483 41.3241 53.7821 42.4318 53.4498 43.4288C53.1175 44.4258 52.619 45.312 51.9543 46.0321C51.2897 46.7521 50.4588 47.306 49.5172 47.7491C48.5756 48.1368 47.4678 48.3584 46.2493 48.3584C45.0307 48.3584 43.923 48.1368 42.9814 47.7491C42.0398 47.3614 41.2089 46.8075 40.5443 46.0321C39.8796 45.312 39.3811 44.4258 39.0488 43.4288C38.7165 42.4318 38.5503 41.3241 38.5503 40.1055C38.5503 38.887 38.7165 37.7792 39.0488 36.7822C39.3811 35.7852 39.8796 34.899 40.5443 34.1789C41.2089 33.4589 42.0398 32.905 42.9814 32.4619C43.923 32.0742 45.0307 31.8526 46.2493 31.8526C47.4678 31.8526 48.5756 32.0742 49.5172 32.4619C50.4588 32.8496 51.2897 33.4035 51.9543 34.1789C52.619 34.899 53.1175 35.7852 53.4498 36.7822C53.7821 37.7792 53.9483 38.887 53.9483 40.1055ZM50.9573 40.1055C50.9573 39.1639 50.8465 38.2777 50.625 37.5576C50.4034 36.8376 50.0711 36.2283 49.628 35.7298C49.1849 35.2313 48.6864 34.899 48.1325 34.6774C47.5786 34.4559 46.914 34.3451 46.2493 34.3451C45.5846 34.3451 44.92 34.4559 44.3661 34.6774C43.8122 34.899 43.3137 35.2867 42.8706 35.7298C42.4275 36.2283 42.1505 36.8376 41.8736 37.5576C41.6521 38.2777 41.5413 39.1085 41.5413 40.1055C41.5413 41.0471 41.6521 41.9333 41.8736 42.6534C42.0952 43.3734 42.4275 43.9827 42.8706 44.4812C43.3137 44.9797 43.8122 45.312 44.3661 45.5336C44.92 45.7551 45.5846 45.9213 46.2493 45.9213C46.914 45.9213 47.5786 45.8105 48.1325 45.5336C48.6864 45.312 49.1849 44.9243 49.628 44.4812C50.0711 43.9827 50.348 43.4288 50.625 42.6534C50.8465 41.9333 50.9573 41.0471 50.9573 40.1055Z" fill="white"/>
<path d="M106.457 32.9049C106.457 35.1205 105.847 37.0037 104.629 38.5545C103.41 40.1054 101.527 41.2686 98.9238 41.9886V42.0994L108.395 55.1711H101.416L92.7757 42.8195H88.7877V55.1711H82.9719V23.3227H92.6649C94.2712 23.3227 95.7667 23.4335 97.1514 23.5996C98.5361 23.7658 99.6993 24.0427 100.696 24.4305C102.579 25.1505 104.02 26.2029 105.017 27.5876C105.958 29.0277 106.457 30.8002 106.457 32.9049ZM91.6125 38.0007C92.9418 38.0007 94.0496 37.9453 94.9912 37.8345C95.9328 37.7237 96.7083 37.5576 97.3176 37.2806C98.4807 36.8375 99.3115 36.2282 99.7546 35.4528C100.198 34.6773 100.419 33.7911 100.419 32.7941C100.419 31.9633 100.253 31.1879 99.8654 30.5232C99.5331 29.8585 98.9238 29.36 98.0376 28.9723C97.4837 28.6954 96.7637 28.5292 95.9328 28.4184C95.102 28.3077 94.0496 28.2523 92.8311 28.2523H88.6769V38.0007H91.6125Z" fill="white"/>
<path d="M119.362 50.2969H135.037V55.1711H113.546V23.3227H134.151V28.1969H119.362V36.4498H132.046V41.324H119.362V50.2969Z" fill="white"/>
<path d="M156.86 46.032C156.86 45.2012 156.639 44.5919 156.251 44.0934C155.863 43.5949 155.309 43.2072 154.645 42.8749C153.98 42.5425 153.205 42.321 152.374 42.0994C151.543 41.8778 150.657 41.7117 149.715 41.4901C148.497 41.2132 147.278 40.8809 146.17 40.5485C145.062 40.1608 144.065 39.6623 143.179 38.9977C142.348 38.333 141.628 37.5022 141.13 36.5052C140.631 35.5082 140.354 34.2342 140.354 32.6834C140.354 31.0217 140.631 29.5262 141.241 28.3077C141.85 27.0891 142.625 26.0367 143.622 25.2059C144.619 24.3751 145.838 23.7658 147.167 23.3781C148.497 22.9904 150.047 22.7688 151.764 22.7688C153.482 22.7688 155.143 22.935 156.86 23.2673C158.577 23.5996 160.073 24.0427 161.291 24.5412V29.5262C159.63 28.8616 158.079 28.4184 156.528 28.0861C155.032 27.8092 153.592 27.643 152.263 27.643C150.324 27.643 148.884 27.9753 147.832 28.6954C146.779 29.4154 146.281 30.4678 146.281 31.8525C146.281 32.6834 146.447 33.348 146.779 33.8465C147.112 34.345 147.61 34.7881 148.164 35.1205C148.773 35.4528 149.438 35.7297 150.214 35.9513C150.989 36.1728 151.764 36.339 152.651 36.5052C153.98 36.7821 155.309 37.1144 156.528 37.5022C157.746 37.8899 158.854 38.3884 159.796 39.053C160.737 39.7177 161.513 40.6039 162.067 41.6563C162.621 42.7087 162.898 44.0934 162.898 45.755C162.898 47.4721 162.565 48.9676 161.956 50.1861C161.347 51.4601 160.405 52.4571 159.242 53.2879C158.079 54.1187 156.639 54.728 154.977 55.1157C153.315 55.5034 151.488 55.725 149.494 55.725C147.776 55.725 146.059 55.5588 144.398 55.2265C142.736 54.8942 141.351 54.3957 140.244 53.7864V48.8568C141.795 49.5215 143.345 50.02 144.841 50.3523C146.336 50.6846 147.887 50.7954 149.438 50.7954C150.38 50.7954 151.266 50.74 152.152 50.5739C153.038 50.4077 153.814 50.1861 154.534 49.7984C155.254 49.4107 155.808 48.9122 156.251 48.3029C156.639 47.749 156.86 46.9736 156.86 46.032Z" fill="white"/>
<path d="M182.505 55.7804C180.843 55.7804 179.348 55.6142 178.019 55.2819C176.689 54.9495 175.526 54.5064 174.474 53.8972C173.477 53.2879 172.591 52.5678 171.871 51.6816C171.15 50.7954 170.597 49.7984 170.153 48.6906C169.821 47.8044 169.544 46.8074 169.378 45.755C169.212 44.7027 169.156 43.4841 169.156 42.1548V23.3781H174.972V41.6009C174.972 43.8718 175.249 45.5889 175.803 46.8628C176.412 48.2475 177.299 49.2999 178.462 49.9092C179.625 50.5184 181.01 50.8508 182.561 50.8508C184.111 50.8508 185.496 50.5184 186.659 49.9092C187.822 49.2999 188.709 48.2475 189.318 46.8628C189.872 45.5889 190.149 43.8164 190.149 41.6009V23.3781H195.965V42.1548C195.965 43.4841 195.909 44.7027 195.743 45.755C195.577 46.8074 195.355 47.8044 194.968 48.6906C194.524 49.7984 193.971 50.7954 193.251 51.6816C192.53 52.5678 191.644 53.2879 190.592 53.8972C189.539 54.5064 188.376 54.9495 186.992 55.2819C185.662 55.6142 184.167 55.7804 182.505 55.7804Z" fill="white"/>
<path d="M219.837 46.6413C220.557 44.1488 221.388 41.4347 222.44 38.5545L227.924 23.3227H236.121V55.1711H230.305V39.053C230.305 36.6713 230.416 33.9573 230.582 30.8001H230.361C230.084 31.6864 229.751 32.7387 229.419 33.8465C229.031 34.9543 228.699 36.0621 228.256 37.1698L221.665 55.1711H217.898L211.307 37.1698C210.919 36.0621 210.532 34.9543 210.144 33.8465C209.756 32.7387 209.479 31.6864 209.202 30.8001H208.981C209.147 33.7357 209.258 36.4498 209.258 38.9977V55.1711H203.442V23.3227H211.584L217.067 38.4991C218.009 41.047 218.84 43.7611 219.671 46.6413H219.837Z" fill="white"/>
<path d="M249.525 50.2969H265.2V55.1711H243.709V23.3227H264.314V28.1969H249.525V36.4498H262.209V41.324H249.525V50.2969Z" fill="white"/>
</svg>
