<?xml version="1.0" encoding="utf-8"?>
<!-- Generator: Adobe Illustrator 16.0.3, SVG Export Plug-In . SVG Version: 6.00 Build 0)  -->
<!DOCTYPE svg PUBLIC "-//W3C//DTD SVG 1.1//EN" "http://www.w3.org/Graphics/SVG/1.1/DTD/svg11.dtd">
<svg version="1.1" id="Layer_1" xmlns="http://www.w3.org/2000/svg" xmlns:xlink="http://www.w3.org/1999/xlink" x="0px" y="0px"
	 width="24px" height="24px" viewBox="0 0 24 24" enable-background="new 0 0 24 24" xml:space="preserve">
<g>
	<path fill="#777777" d="M21.708,20.044c-0.164,0.266-0.464,0.418-0.824,0.418H15.23c-0.229,1.591-1.584,2.821-3.231,2.821
		c-1.646,0-3-1.23-3.23-2.821H3.114c-0.36,0-0.66-0.152-0.824-0.418c-0.164-0.266-0.165-0.604-0.004-0.927l2.689-5.812V7.768
		c0-3.888,3.151-7.051,7.023-7.051c3.874,0,7.025,3.163,7.025,7.051v5.538l2.695,5.824C21.875,19.44,21.873,19.777,21.708,20.044
		 M11.999,22.343c1.131,0,2.077-0.81,2.295-1.881H9.705C9.922,21.533,10.868,22.343,11.999,22.343 M18.13,13.608
		c-0.001-0.003-0.001-0.005-0.002-0.008c-0.013-0.027-0.015-0.059-0.021-0.088c-0.007-0.032-0.019-0.063-0.019-0.095
		c0-0.003-0.001-0.005-0.001-0.008V7.768c0-3.37-2.731-6.111-6.089-6.111c-3.356,0-6.086,2.741-6.086,6.111v5.642
		c0,0.003-0.001,0.006-0.001,0.008c0,0.032-0.012,0.063-0.019,0.094c-0.007,0.03-0.009,0.062-0.021,0.089
		c-0.001,0.003-0.001,0.005-0.002,0.008l-2.738,5.914h17.738L18.13,13.608z"/>
</g>
</svg>
