<?xml version="1.0" encoding="utf-8"?>
<!-- Generator: Adobe Illustrator 16.0.3, SVG Export Plug-In . SVG Version: 6.00 Build 0)  -->
<!DOCTYPE svg PUBLIC "-//W3C//DTD SVG 1.1//EN" "http://www.w3.org/Graphics/SVG/1.1/DTD/svg11.dtd">
<svg version="1.1" id="Layer_1" xmlns="http://www.w3.org/2000/svg" xmlns:xlink="http://www.w3.org/1999/xlink" x="0px" y="0px"
	 width="32px" height="32px" viewBox="308.5 -0.167 32 32" enable-background="new 308.5 -0.167 32 32" xml:space="preserve">
<g>
	<path fill="none" stroke="#FFFFFF" stroke-width="1.5" stroke-miterlimit="10" d="M334.084,26.5h-18.668l0,0
		c-1.473,0-2.666-1.192-2.666-2.666l0,0v-12l0,0c0-1.473,1.193-2.667,2.666-2.667h18.668l0,0c1.473,0,2.666,1.194,2.666,2.667v12
		l0,0C336.75,25.307,335.557,26.5,334.084,26.5L334.084,26.5z"/>
	<path fill="none" stroke="#FFFFFF" stroke-width="1.5" stroke-miterlimit="10" d="M330.084,26.5v-20l0,0
		c0-1.473-1.194-2.667-2.668-2.667h-5.332l0,0c-1.474,0-2.668,1.194-2.668,2.667l0,0v20"/>
</g>
</svg>
