<?xml version="1.0" encoding="utf-8"?>
<!-- Generator: Adobe Illustrator 16.0.3, SVG Export Plug-In . SVG Version: 6.00 Build 0)  -->
<!DOCTYPE svg PUBLIC "-//W3C//DTD SVG 1.1//EN" "http://www.w3.org/Graphics/SVG/1.1/DTD/svg11.dtd">
<svg version="1.1" id="Layer_1" xmlns="http://www.w3.org/2000/svg" xmlns:xlink="http://www.w3.org/1999/xlink" x="0px" y="0px"
	 width="32px" height="32px" viewBox="233.787 0.5 32 32" enable-background="new 233.787 0.5 32 32" xml:space="preserve">
<g>
	<path fill="none" stroke="#FFFFFF" stroke-width="1.5" stroke-miterlimit="10" d="M249.33,26.184c-5.359,0-9.688-4.418-9.539-9.813
		c0.139-4.979,4.289-9.131,9.27-9.269c5.395-0.15,9.813,4.179,9.813,9.539c0,1.44-0.318,2.805-0.889,4.029l1.229,5.878l-5.867-1.247
		C252.124,25.869,250.764,26.184,249.33,26.184z"/>
	<path fill="none" stroke="#FFFFFF" stroke-width="1.5" stroke-miterlimit="10" d="M249.518,16.458c0.104,0.104,0.104,0.271,0,0.376
		c-0.104,0.102-0.271,0.102-0.375,0c-0.104-0.104-0.104-0.271,0-0.376C249.246,16.355,249.414,16.355,249.518,16.458"/>
	<path fill="none" stroke="#FFFFFF" stroke-width="1.5" stroke-miterlimit="10" d="M253.759,16.458c0.104,0.104,0.104,0.271,0,0.376
		c-0.103,0.102-0.271,0.102-0.375,0c-0.104-0.104-0.104-0.271,0-0.376C253.488,16.355,253.656,16.355,253.759,16.458"/>
	<path fill="none" stroke="#FFFFFF" stroke-width="1.5" stroke-miterlimit="10" d="M245.275,16.458c0.104,0.104,0.104,0.271,0,0.376
		c-0.104,0.102-0.271,0.102-0.375,0c-0.104-0.104-0.104-0.271,0-0.376C245.004,16.355,245.172,16.355,245.275,16.458"/>
</g>
</svg>
