<?xml version="1.0" encoding="utf-8"?>
<!-- Generator: Adobe Illustrator 16.0.3, SVG Export Plug-In . SVG Version: 6.00 Build 0)  -->
<!DOCTYPE svg PUBLIC "-//W3C//DTD SVG 1.1//EN" "http://www.w3.org/Graphics/SVG/1.1/DTD/svg11.dtd">
<svg version="1.1" id="Layer_1" xmlns="http://www.w3.org/2000/svg" xmlns:xlink="http://www.w3.org/1999/xlink" x="0px" y="0px"
	 width="32px" height="32px" viewBox="270.167 0.5 32 32" enable-background="new 270.167 0.5 32 32" xml:space="preserve">
<g>
	<path fill="none" stroke="#FFFFFF" stroke-width="1.5" stroke-miterlimit="10" d="M288.514,24.301h5.658
		c1.249,0,2.262-1.013,2.262-2.263V8.459c0-1.25-1.013-2.263-2.262-2.263h-15.844c-1.249,0-2.262,1.013-2.262,2.263v13.579
		c0,1.25,1.013,2.263,2.262,2.263h5.658l2.264,2.264L288.514,24.301z"/>
	<path fill="none" stroke="#FFFFFF" stroke-width="1.5" stroke-miterlimit="10" d="M286.45,15.049c0.11,0.11,0.11,0.29,0,0.4
		c-0.11,0.111-0.29,0.111-0.4,0c-0.11-0.11-0.11-0.29,0-0.4C286.16,14.939,286.34,14.939,286.45,15.049"/>
	<path fill="none" stroke="#FFFFFF" stroke-width="1.5" stroke-miterlimit="10" d="M290.977,15.049c0.111,0.11,0.111,0.29,0,0.4
		c-0.11,0.111-0.289,0.111-0.399,0c-0.111-0.11-0.111-0.29,0-0.4C290.688,14.939,290.865,14.939,290.977,15.049"/>
	<path fill="none" stroke="#FFFFFF" stroke-width="1.5" stroke-miterlimit="10" d="M281.924,15.049c0.111,0.11,0.111,0.29,0,0.4
		c-0.111,0.111-0.289,0.111-0.4,0c-0.11-0.11-0.11-0.29,0-0.4C281.635,14.939,281.813,14.939,281.924,15.049"/>
</g>
</svg>
