<?xml version="1.0" encoding="utf-8"?>
<!-- Generator: Adobe Illustrator 16.0.3, SVG Export Plug-In . SVG Version: 6.00 Build 0)  -->
<!DOCTYPE svg PUBLIC "-//W3C//DTD SVG 1.1//EN" "http://www.w3.org/Graphics/SVG/1.1/DTD/svg11.dtd">
<svg version="1.1" id="Layer_1" xmlns="http://www.w3.org/2000/svg" xmlns:xlink="http://www.w3.org/1999/xlink" x="0px" y="0px"
	 width="32px" height="32px" viewBox="154.725 0.167 32 32" enable-background="new 154.725 0.167 32 32" xml:space="preserve">
<g>
	<path fill="none" stroke="#FFFFFF" stroke-width="1.5" stroke-miterlimit="10" d="M185.057,26v-1.462
		c0-1.841-1.492-3.333-3.332-3.333h-1.068"/>
	<g>
		<path fill="none" stroke="#FFFFFF" stroke-width="1.5" stroke-miterlimit="10" d="M182.111,13.364
			c1.056,1.053,1.056,2.761,0,3.813c-1.053,1.055-2.76,1.055-3.813,0c-1.053-1.053-1.053-2.761,0-3.813
			C179.352,12.311,181.061,12.311,182.111,13.364"/>
		<path fill="none" stroke="#FFFFFF" stroke-width="1.5" stroke-miterlimit="10" d="M173.327,8.549c1.621,1.622,1.621,4.251,0,5.874
			c-1.623,1.622-4.252,1.622-5.875,0c-1.621-1.622-1.621-4.252,0-5.874C169.075,6.927,171.704,6.927,173.327,8.549"/>
		<path fill="none" stroke="#FFFFFF" stroke-width="1.5" stroke-miterlimit="10" d="M162.48,13.364c1.054,1.053,1.054,2.761,0,3.813
			c-1.054,1.055-2.762,1.055-3.813,0c-1.056-1.053-1.056-2.761,0-3.813C159.721,12.311,161.428,12.311,162.48,13.364"/>
		<path fill="none" stroke="#FFFFFF" stroke-width="1.5" stroke-miterlimit="10" d="M155.725,26v-1.462
			c0-1.841,1.49-3.333,3.332-3.333h1.067"/>
		<path fill="none" stroke="#FFFFFF" stroke-width="1.5" stroke-miterlimit="10" d="M177.509,26v-2.135
			c0-2.578-2.09-4.667-4.667-4.667h-4.904c-2.578,0-4.668,2.089-4.668,4.667V26"/>
	</g>
</g>
</svg>
