<?xml version="1.0" encoding="utf-8"?>
<!-- Generator: Adobe Illustrator 16.0.3, SVG Export Plug-In . SVG Version: 6.00 Build 0)  -->
<!DOCTYPE svg PUBLIC "-//W3C//DTD SVG 1.1//EN" "http://www.w3.org/Graphics/SVG/1.1/DTD/svg11.dtd">
<svg version="1.1" id="Layer_1" xmlns="http://www.w3.org/2000/svg" xmlns:xlink="http://www.w3.org/1999/xlink" x="0px" y="0px"
	 width="32px" height="32px" viewBox="76.833 0.5 32 32" enable-background="new 76.833 0.5 32 32" xml:space="preserve">
<g>
	<path fill="none" stroke="#FFFFFF" stroke-width="1.5" stroke-miterlimit="10" d="M95.357,14.643c1.301,1.302,1.301,3.412,0,4.714
		c-1.303,1.301-3.412,1.301-4.715,0c-1.302-1.303-1.302-3.414,0-4.714C91.945,13.341,94.055,13.341,95.357,14.643"/>
	<path fill="none" stroke="#FFFFFF" stroke-width="1.5" stroke-miterlimit="10" d="M102.672,6.643c1.303,1.302,1.303,3.412,0,4.714
		c-1.302,1.302-3.412,1.302-4.715,0c-1.301-1.302-1.301-3.412,0-4.714C99.26,5.341,101.37,5.341,102.672,6.643"/>
	<path fill="none" stroke="#FFFFFF" stroke-width="1.5" stroke-miterlimit="10" d="M101,16.333c2.044,0,4,0.711,5.334,1.776"/>
	<path fill="none" stroke="#FFFFFF" stroke-width="1.5" stroke-miterlimit="10" d="M88.043,6.643c1.301,1.302,1.301,3.412,0,4.714
		c-1.303,1.302-3.413,1.302-4.715,0c-1.303-1.302-1.303-3.412,0-4.714C84.63,5.341,86.74,5.341,88.043,6.643"/>
	<path fill="none" stroke="#FFFFFF" stroke-width="1.5" stroke-miterlimit="10" d="M79.666,18.111
		C81,17.044,82.956,16.333,85,16.333"/>
	<path fill="none" stroke="#FFFFFF" stroke-width="1.5" stroke-miterlimit="10" d="M99.121,26.334c-1.553-1.201-3.785-2-6.121-2
		s-4.568,0.799-6.121,2"/>
</g>
</svg>
